<svg width="16" height="16" viewBox="0 0 16 16" fill="none" xmlns="http://www.w3.org/2000/svg">
<g id="chevron">
<path id="Vector" d="M12.1197 6.6972L8.54418 10.4427C8.46645 10.5242 8.38224 10.5817 8.29156 10.6154C8.20088 10.6496 8.10372 10.6667 8.00008 10.6667C7.89644 10.6667 7.79928 10.6496 7.7086 10.6154C7.61792 10.5817 7.53371 10.5242 7.45599 10.4427L3.8805 6.6972C3.738 6.54792 3.66675 6.35793 3.66675 6.12722C3.66675 5.89652 3.738 5.70653 3.8805 5.55725C4.023 5.40797 4.20437 5.33333 4.4246 5.33333C4.64482 5.33333 4.82619 5.40797 4.96869 5.55725L8.00008 8.73282L11.0315 5.55725C11.174 5.40797 11.3553 5.33333 11.5756 5.33333C11.7958 5.33333 11.9772 5.40797 12.1197 5.55725C12.2622 5.70653 12.3334 5.89652 12.3334 6.12722C12.3334 6.35793 12.2622 6.54792 12.1197 6.6972Z" fill="#252525"/>
</g>
</svg>
