<svg xmlns="http://www.w3.org/2000/svg" width="6" height="10" viewBox="0 0 6 10" fill="none">
  <path d="M1.36354 0.880339L5.10909 4.45582C5.19051 4.53355 5.24805 4.61776 5.28171 4.70844C5.31591 4.79912 5.33301 4.89628 5.33301 4.99992C5.33301 5.10356 5.31591 5.20072 5.28171 5.2914C5.24805 5.38208 5.19051 5.46629 5.10909 5.54401L1.36354 9.1195C1.21426 9.262 1.02427 9.33325 0.793568 9.33325C0.562864 9.33325 0.372872 9.262 0.223594 9.1195C0.0743146 8.977 -0.00032568 8.79563 -0.00032568 8.5754C-0.00032568 8.35518 0.0743146 8.17381 0.223594 8.03131L3.39917 4.99992L0.223594 1.96853C0.0743146 1.82603 -0.00032568 1.64466 -0.00032568 1.42443C-0.00032568 1.2042 0.0743146 1.02284 0.223594 0.880339C0.372872 0.737838 0.562864 0.666586 0.793568 0.666586C1.02427 0.666586 1.21426 0.737838 1.36354 0.880339Z" fill="#606060"/>
</svg>